<svg xmlns="http://www.w3.org/2000/svg" viewBox="0 0 64 64" width="64" height="64" role="img" aria-labelledby="t">
  <title id="t">Brussels sprouts</title>
  <style>.ink-s{stroke:#303532}.ink-f{fill:#303532}.paper-s{stroke:#F3E8CF}.paper-f{fill:#F3E8CF}@media(prefers-color-scheme:dark){.ink-s{stroke:#F3E8CF}.ink-f{fill:#F3E8CF}.paper-s{stroke:#303532}.paper-f{fill:#303532}}</style>
  <defs>
    <filter id="brusselsprouts-depth" x="-18%" y="-18%" width="136%" height="140%" color-interpolation-filters="sRGB">
      <feDropShadow dx="0.35" dy="0.8" stdDeviation="0.6" flood-color="#111815" flood-opacity="0.27"/>
    </filter>
    <radialGradient id="brusselsprouts-green2" cx="27%" cy="20%" r="88%">
      <stop offset="0" stop-color="#BCD099"/>
      <stop offset="0.48" stop-color="#6F8B61"/>
      <stop offset="1" stop-color="#405538"/>
    </radialGradient>
    <radialGradient id="brusselsprouts-green" cx="27%" cy="20%" r="88%">
      <stop offset="0" stop-color="#79A18A"/>
      <stop offset="0.48" stop-color="#244C3F"/>
      <stop offset="1" stop-color="#142F28"/>
    </radialGradient>
  </defs>
  <g class="ink-s" stroke-width="2.05" stroke-linecap="round" stroke-linejoin="round" filter="url(#brusselsprouts-depth)"><circle cx="25" cy="35" r="10" fill="url(#brusselsprouts-green2)" data-tone="green2" /><path d="M17 35Q25 31.34 33 35Q25 38.66 17 35Z" fill="url(#brusselsprouts-green)" data-tone="green" transform="rotate(0 25 35)" stroke-width="1.2"/><circle cx="40" cy="39" r="9" fill="url(#brusselsprouts-green)" data-tone="green" /><path d="M33 39Q40 35.34 47 39Q40 42.66 33 39Z" fill="url(#brusselsprouts-green)" data-tone="green" transform="rotate(38 40 39)" stroke-width="1.2"/><circle cx="34" cy="25" r="9" fill="url(#brusselsprouts-green2)" data-tone="green2" /><path d="M27 25Q34 21.34 41 25Q34 28.66 27 25Z" fill="url(#brusselsprouts-green)" data-tone="green" transform="rotate(76 34 25)" stroke-width="1.2"/></g>
</svg>