<?xml version="1.0" encoding="UTF-8"?>
<svg xmlns="http://www.w3.org/2000/svg" viewBox="0 0 64 64" role="img" aria-labelledby="walnuts-title" data-aisle="Nuts, Seeds &amp; Dried Fruit" data-render-style="dimensional">
  <title id="walnuts-title">Walnuts</title>
  <defs><radialGradient id="walnuts-green" cx="27%" cy="20%" r="88%">
      <stop offset="0" stop-color="#79A18A"/>
      <stop offset="0.48" stop-color="#244C3F"/>
      <stop offset="1" stop-color="#142F28"/>
    </radialGradient>
<radialGradient id="walnuts-green2" cx="27%" cy="20%" r="88%">
      <stop offset="0" stop-color="#BCD099"/>
      <stop offset="0.48" stop-color="#6F8B61"/>
      <stop offset="1" stop-color="#405538"/>
    </radialGradient>
<radialGradient id="walnuts-clay" cx="27%" cy="20%" r="88%">
      <stop offset="0" stop-color="#F1A176"/>
      <stop offset="0.48" stop-color="#C66B3D"/>
      <stop offset="1" stop-color="#813A26"/>
    </radialGradient>
<radialGradient id="walnuts-clay2" cx="27%" cy="20%" r="88%">
      <stop offset="0" stop-color="#F6C79F"/>
      <stop offset="0.48" stop-color="#DF9A68"/>
      <stop offset="1" stop-color="#A85C3B"/>
    </radialGradient>
<radialGradient id="walnuts-charcoal" cx="27%" cy="20%" r="88%">
      <stop offset="0" stop-color="#758078"/>
      <stop offset="0.48" stop-color="#303532"/>
      <stop offset="1" stop-color="#151917"/>
    </radialGradient>
<radialGradient id="walnuts-cream" cx="27%" cy="20%" r="88%">
      <stop offset="0" stop-color="#FFFDF2"/>
      <stop offset="0.48" stop-color="#F3E8CF"/>
      <stop offset="1" stop-color="#C6B184"/>
    </radialGradient>
<radialGradient id="walnuts-cream2" cx="27%" cy="20%" r="88%">
      <stop offset="0" stop-color="#F4E8CB"/>
      <stop offset="0.48" stop-color="#D8C9A7"/>
      <stop offset="1" stop-color="#A8956C"/>
    </radialGradient>
<radialGradient id="walnuts-gold" cx="27%" cy="20%" r="88%">
      <stop offset="0" stop-color="#F8D878"/>
      <stop offset="0.48" stop-color="#D8A94F"/>
      <stop offset="1" stop-color="#98651F"/>
    </radialGradient>
<radialGradient id="walnuts-red" cx="27%" cy="20%" r="88%">
      <stop offset="0" stop-color="#DC8066"/>
      <stop offset="0.48" stop-color="#9E4938"/>
      <stop offset="1" stop-color="#5E2824"/>
    </radialGradient>
    <filter id="walnuts-depth" x="-18%" y="-18%" width="136%" height="140%" color-interpolation-filters="sRGB">
      <feDropShadow dx="0.35" dy="0.8" stdDeviation="0.6" flood-color="#111815" flood-opacity="0.27"/>
    </filter></defs>
  <style>
    .food-icon { color-scheme: light dark; }
    @media (prefers-color-scheme: dark) {
      .food-icon { stroke: #F3E8CF; }

      .food-icon [data-tone="charcoal"] { fill: url(#walnuts-cream); }
      .food-icon [data-tone="cream"] { fill: url(#walnuts-charcoal); }
      .food-icon [fill="#303532"] { fill: #F3E8CF; }
      .food-icon [fill="#F3E8CF"] { fill: #303532; }
      .food-icon [stroke="#303532"] { stroke: #F3E8CF; }
      .food-icon [stroke="#F3E8CF"] { stroke: #303532; }
    }
  </style>
  <g class="food-icon" stroke="#303532" stroke-width="2.05" stroke-linecap="round" stroke-linejoin="round" paint-order="stroke fill" filter="url(#walnuts-depth)">
    <g class="optical-alignment" transform="translate(32 32) scale(1.36803) translate(-32.4375 -37.8125)"><path d="M25 27C17 27 17 39 23 42C25 44 27 42 29 40C35 35 32 27 25 27Z" fill="url(#walnuts-clay2)" data-tone="clay2" transform="rotate(-18 25 35)"/><path d="M25 29L25 41" fill="none" stroke="#F3E8CF" stroke-width="1.2"/><path d="M39 22C31 22 31 34 37 37C39 39 41 37 43 35C49 30 46 22 39 22Z" fill="url(#walnuts-clay2)" data-tone="clay2" transform="rotate(18 39 30)"/><path d="M39 24L39 36" fill="none" stroke="#F3E8CF" stroke-width="1.2"/><path d="M36 38C28 38 28 50 34 53C36 55 38 53 40 51C46 46 43 38 36 38Z" fill="url(#walnuts-clay2)" data-tone="clay2" transform="rotate(28 36 46)"/><path d="M36 40L36 52" fill="none" stroke="#F3E8CF" stroke-width="1.2"/></g>
  </g>
</svg>
